<svg width="1440" height="845" viewBox="0 0 1440 845" fill="none" xmlns="http://www.w3.org/2000/svg">
<path fill-rule="evenodd" clip-rule="evenodd" d="M8.11073 4.51667V9.03333H3.58793H-0.934872V18.0667V27.1H4.38123H9.69643L11.624 35.4558C12.6833 40.0511 13.548 44.1161 13.5444 44.4892C13.5408 44.8622 10.2817 45.1667 6.30161 45.1667H-0.934872V54.0708V62.975L8.15144 63.6001C13.1491 63.9433 18.0139 64.5116 18.9627 64.862C21.3128 65.7301 31.4086 86.1473 29.1463 85.4562C21.5887 83.1491 15.3879 82.0145 7.88459 81.5656L-0.934872 81.0371V90.0677V99.0984L6.52775 99.6557C35.9757 101.856 63.4635 122.438 74.2468 150.361C93.8884 201.225 60.0976 255.154 5.17091 260.602L-0.934872 261.207V270.298V279.39L6.37036 278.781C68.2713 273.626 110.302 215.463 95.2814 155.745C93.3755 148.17 93.0897 148.232 104.352 153.773C116.036 159.521 115.32 157.754 115.237 180.667C115.01 243.203 69.8579 291.215 6.07547 296.743L-0.934872 297.351V306.437V315.523L7.32558 314.9C80.0767 309.415 133.843 252.113 133.913 179.989C133.92 171.915 134.155 165.31 134.434 165.31C134.712 165.31 137.238 165.88 140.046 166.576C142.854 167.272 146.736 168.114 148.673 168.447L152.195 169.053L151.684 184.571C149.085 263.619 86.7894 328.375 9.69372 332.169L-0.934872 332.692V342.132V351.571L3.58884 351.258L8.11164 350.945V359.978V369.012L3.55627 368.696L-1 368.381L-0.741296 377.73L-0.482591 387.078L4.7123 387.349C9.21249 387.583 9.96961 387.886 10.3658 389.608C12.9076 400.648 13.5137 403.493 13.5245 404.439C13.5345 405.26 11.6973 405.398 6.30161 404.982L-0.934872 404.426V413.515V422.606L6.07547 423.241C21.0839 424.602 19.6421 423.704 25.4313 435.292C29.9803 444.398 30.3276 445.471 28.5972 445.081C16.8832 442.445 12.6245 441.697 6.37036 441.175L-0.934872 440.566V449.585V458.603L7.79323 459.675C61.1053 466.218 93.485 519.777 74.2468 569.596C63.4635 597.519 35.9757 618.1 6.52775 620.301L-0.934872 620.858V629.889V638.92L7.88459 638.394C67.4553 634.844 110.2 574.408 95.1105 515.069C94.2032 511.498 93.5383 508.577 93.6342 508.577C95.1883 508.577 113.948 518.984 114.422 520.11C115.954 523.744 115.978 550.434 114.457 559.163C105.218 612.205 60.8394 652.732 8.01937 656.366L-0.934872 656.982V666.024V675.066L9.24144 674.48C79.0817 670.456 133.876 611.201 133.892 539.683L133.895 525.172L142.689 527.137L151.484 529.1L151.372 544.358C150.815 621.068 90.1861 685.125 11.5028 692.136L-0.934872 693.243V702.083V710.923H3.58793H8.11073V719.957V728.99H3.58793H-0.934872V738.023V747.057H3.98684C6.69419 747.057 9.16998 747.479 9.49019 747.996C10.099 748.98 13.5381 762.812 13.5381 764.277C13.5381 764.743 10.2817 765.123 6.30161 765.123H-0.934872V774.027V782.932L8.15144 783.557C13.1491 783.9 18.0139 784.468 18.9627 784.819C21.3128 785.687 31.4086 806.104 29.1463 805.413C21.5887 803.106 15.3879 801.971 7.88459 801.522L-0.934872 800.994V810.024V819.055L6.52775 819.612C35.945 821.81 63.4744 842.423 74.2468 870.317C93.8938 921.195 60.1112 975.109 5.17091 980.558L-0.934872 981.164V990.255V999.347L6.37036 998.738C68.2658 993.584 110.305 935.434 95.2914 875.745C93.3737 868.121 93.0834 868.186 104.352 873.729C116.036 879.478 115.32 877.71 115.237 900.623C115.01 963.159 69.8579 1011.17 6.07547 1016.7L-0.934872 1017.31V1026.39V1035.48L7.32558 1034.86C80.0767 1029.37 133.843 972.07 133.913 899.946C133.92 891.873 134.155 885.267 134.434 885.267C134.712 885.267 137.238 885.837 140.046 886.532C142.854 887.229 146.736 888.071 148.673 888.404L152.195 889.01L151.684 904.528C149.088 983.469 87.627 1047.49 9.91986 1052.2L-0.482591 1052.83L-0.741296 1062.18L-1 1071.53L3.55627 1071.22L8.11164 1070.9V1077.45L8.11073 1084H17.1202H26.1287L26.3919 1076.58L26.6542 1069.16L32.9862 1067.71C36.4687 1066.92 40.437 1065.98 41.8056 1065.63L44.2932 1065V1074.5V1084H53.2004H62.1085L62.682 1073.39C63.4943 1058.36 62.8955 1059.37 74.358 1053.63C86.0224 1047.79 85.3286 1047.64 83.0925 1055.56C81.3928 1061.58 79.6995 1077.66 80.3128 1081.97C80.5896 1083.92 80.9577 1084 89.5845 1084H98.5668V1077.84C98.5668 1020 163.004 981.408 215.516 1007.8C241.857 1021.03 257.787 1045.5 260.163 1076.37L260.75 1084H269.8H278.851L278.291 1074.29C274.777 1013.28 214.818 968.723 156.161 983.521C151.769 984.63 148.082 985.537 147.968 985.537C147.855 985.537 150.058 980.975 152.864 975.399C158.983 963.241 158.214 963.596 178.62 963.498C241.254 963.196 290.192 1008.63 295.984 1072.46L297.031 1084H306.032H315.034L314.483 1073.84C310.462 999.603 249.435 942.989 175.638 945.03C164.902 945.328 164.529 945.275 164.934 943.532C165.164 942.538 166.033 938.594 166.867 934.767L168.38 927.81L172.433 927.203C178.103 926.354 194.85 927.553 206.662 929.653C275.531 941.9 328.901 1002.3 331.674 1071.13L332.193 1084H341.566H350.939V1077.68V1071.35H359.533H368.126V1077.68V1084H377.624H387.122V1076.51V1069.01L394.965 1067.39C399.279 1066.49 403.307 1065.57 403.917 1065.33C404.766 1065.01 404.911 1067.13 404.536 1074.45L404.049 1084H413.108H422.166L422.831 1075.19C423.196 1070.35 423.757 1064.65 424.078 1062.52L424.661 1058.66L434.586 1053.77C446.343 1047.97 445.478 1047.64 443.212 1056.99C442.2 1061.16 441.112 1068.95 440.794 1074.29L440.214 1084H449.265H458.315L458.902 1076.37C463.282 1019.46 517.699 984.551 570.074 1005.05C599.041 1016.39 620.498 1047.12 620.498 1077.28V1084H629.544H638.59L638.574 1075.64C638.477 1024.09 594.071 981.712 539.992 981.565C524.605 981.523 522.192 981.817 510.365 985.171C508.507 985.698 508.762 984.849 513.285 975.48C519.035 963.573 517.829 964.262 534.565 963.313C598.78 959.668 656.624 1013.74 656.675 1077.45L656.681 1084H665.866H675.05L674.492 1071.58C671.339 1001.4 612.268 945.605 540.897 945.387L525.067 945.338L526.853 936.556L528.638 927.773L532.732 927.152C538.278 926.311 561.181 928.228 571.2 930.373C641.135 945.346 692.863 1008.4 692.863 1078.68V1084H701.909H710.954V1077.45V1070.9H720H729.046V1077.45V1084H738.055H747.064L747.327 1076.58L747.589 1069.16L753.921 1067.71C757.404 1066.92 761.372 1065.98 762.74 1065.63L765.228 1065V1074.5V1084H774.135H783.043L783.617 1073.39C784.429 1058.36 783.83 1059.37 795.293 1053.63C806.957 1047.79 806.263 1047.64 804.027 1055.56C802.328 1061.58 800.634 1077.66 801.248 1081.97C801.524 1083.92 801.893 1084 810.519 1084H819.502V1077.84C819.502 1033.37 860.232 996.191 905.435 999.397C946.966 1002.34 977.815 1033.73 981.098 1076.37L981.685 1084H990.735H999.786L999.226 1074.29C995.712 1013.28 935.753 968.723 877.096 983.521C872.703 984.63 869.033 985.537 868.938 985.537C868.844 985.537 871.013 980.908 873.758 975.251L878.75 964.967L887.764 963.834C952.54 955.7 1010.77 1004.67 1016.92 1072.46L1017.97 1084H1026.97H1035.97L1035.42 1073.84C1031.4 999.603 970.37 942.989 896.573 945.03C885.837 945.328 885.464 945.275 885.868 943.532C886.099 942.538 886.968 938.594 887.801 934.767L889.315 927.81L893.368 927.203C899.038 926.354 915.785 927.553 927.597 929.653C996.266 941.865 1049.86 1002.33 1052.61 1070.68L1053.14 1084H1062.51H1071.87V1077.68V1071.35H1080.47H1089.06V1077.68V1084H1098.56H1108.06V1076.51V1069.01L1115.9 1067.39C1120.21 1066.49 1124.24 1065.57 1124.85 1065.33C1125.7 1065.01 1125.85 1067.13 1125.47 1074.45L1124.98 1084H1134.04H1143.1L1143.77 1075.19C1144.13 1070.35 1144.69 1064.65 1145.01 1062.52L1145.6 1058.66L1155.52 1053.77C1167.28 1047.97 1166.41 1047.64 1164.15 1056.99C1163.14 1061.16 1162.05 1068.95 1161.73 1074.29L1161.15 1084H1170.2H1179.25L1179.84 1076.37C1184.22 1019.46 1238.63 984.551 1291.01 1005.05C1320.22 1016.48 1341.43 1047.1 1341.43 1077.84V1084H1350.48H1359.52L1359.51 1075.64C1359.41 1024.09 1315.01 981.712 1260.93 981.565C1245.54 981.523 1243.13 981.817 1231.3 985.171C1229.44 985.698 1229.7 984.849 1234.22 975.48C1239.97 963.573 1238.76 964.262 1255.5 963.313C1319.6 959.674 1377.56 1013.85 1377.61 1077.45L1377.62 1084H1386.8H1395.98L1395.43 1071.58C1392.27 1001.4 1333.2 945.605 1261.83 945.387L1246 945.338L1247.79 936.556L1249.57 927.773L1253.67 927.152C1259.21 926.311 1282.12 928.228 1292.13 930.373C1362.07 945.346 1413.8 1008.4 1413.8 1078.68V1084H1422.84H1431.89L1431.89 1077.45V1070.9L1436.41 1071.22L1440.93 1071.53V1061.96V1052.38H1435.52C1430.66 1052.38 1430.07 1052.18 1429.65 1050.35C1427.15 1039.54 1426.49 1036.42 1426.48 1035.47C1426.47 1034.65 1428.3 1034.52 1433.7 1034.93L1440.93 1035.49V1026.4V1017.31L1433.92 1016.67C1418.92 1015.31 1420.36 1016.21 1414.57 1004.62C1410.02 995.515 1409.67 994.443 1411.4 994.832C1423.12 997.469 1427.38 998.217 1433.63 998.738L1440.93 999.347V990.255V981.164L1434.83 980.558C1379.86 975.106 1346.1 921.22 1365.75 870.317C1376.54 842.394 1404.02 821.813 1433.47 819.612L1440.93 819.055V810.024V800.994L1432.12 801.52C1372.57 805.068 1329.81 865.535 1344.89 924.844C1345.8 928.415 1346.46 931.337 1346.37 931.337C1344.81 931.337 1326.05 920.929 1325.58 919.804C1324.05 916.17 1324.02 889.479 1325.54 880.75C1334.78 827.708 1379.16 787.181 1431.98 783.548L1440.93 782.932V773.889V764.847L1430.76 765.433C1360.93 769.457 1306.11 828.73 1306.09 900.228L1306.09 914.738L1297.3 912.775L1288.52 910.813L1288.63 895.556C1289.19 818.761 1349.73 754.796 1428.5 747.777L1440.93 746.67V737.83V728.99H1436.41H1431.89V719.957V710.923H1436.41H1440.93V701.89V692.857H1436.01C1429.75 692.857 1430.16 693.539 1426.87 677.726L1426.26 674.79H1433.6H1440.93V665.886V656.982L1431.85 656.357C1426.85 656.013 1421.99 655.445 1421.04 655.095C1418.69 654.227 1408.59 633.809 1410.85 634.5C1418.41 636.807 1424.61 637.942 1432.12 638.391L1440.93 638.92V629.889V620.858L1433.47 620.301C1404.06 618.103 1376.53 597.49 1365.75 569.596C1346.1 518.693 1379.86 464.807 1434.83 459.355L1440.93 458.75V449.659V440.566L1433.63 441.175C1371.63 446.339 1329.77 504.383 1344.77 564.39C1346.62 571.764 1346.88 571.711 1335.65 566.184C1323.96 560.435 1324.68 562.203 1324.76 539.29C1324.99 476.754 1370.14 428.742 1433.92 423.213L1440.93 422.606V413.52V404.434L1432.67 405.056C1359.92 410.542 1306.16 467.844 1306.09 539.967C1306.08 548.042 1305.85 554.647 1305.57 554.647C1305.29 554.647 1302.76 554.077 1299.95 553.381C1297.15 552.685 1293.26 551.843 1291.33 551.509L1287.81 550.903L1288.32 535.386C1290.91 456.444 1352.37 392.421 1430.08 387.709L1440.48 387.078L1440.74 377.73L1441 368.381L1436.44 368.696L1431.89 369.012V359.978V350.945L1436.41 351.258L1440.93 351.571V341.999V332.427H1435.52C1430.65 332.427 1430.07 332.225 1429.66 330.394C1429.41 329.276 1428.59 325.593 1427.83 322.208C1427.08 318.823 1426.46 315.686 1426.46 315.235C1426.46 314.767 1429.56 314.655 1433.7 314.974L1440.93 315.531V306.441V297.351L1433.92 296.715C1418.9 295.354 1420.37 296.273 1414.49 284.526C1411.63 278.826 1409.29 274.07 1409.29 273.958C1409.28 273.846 1410.39 274.176 1411.74 274.691C1415.88 276.263 1425.93 278.14 1433.63 278.781L1440.93 279.39V270.298V261.207L1434.83 260.602C1373.34 254.502 1340.35 188.647 1372.73 136.643C1385.62 115.957 1409.44 101.452 1433.47 99.6557L1440.93 99.0984V89.9512V80.805L1432.4 81.4274C1371.98 85.8401 1329.76 145.404 1344.89 204.888C1345.8 208.459 1346.46 211.38 1346.37 211.38C1344.81 211.38 1326.05 200.973 1325.58 199.847C1324.05 196.213 1324.02 169.522 1325.54 160.793C1334.79 107.732 1379.14 67.2252 1431.98 63.5911L1440.93 62.975V53.9353V44.8957L1431.21 45.4178C1361.25 49.1748 1306.11 108.601 1306.09 180.271L1306.09 194.781L1297.3 192.818L1288.52 190.856L1288.63 175.599C1289.18 98.8753 1349.8 34.8325 1428.5 27.8209L1440.93 26.7134V17.8734V9.03333H1436.41H1431.89V4.51667V0H1422.84H1413.8V5.30889V10.6169L1405.43 12.5419C1400.83 13.5997 1396.76 14.4633 1396.39 14.4597C1396.01 14.456 1395.71 11.2013 1395.71 7.22667V0H1386.79H1377.87L1377.25 9.07398C1376.9 14.0649 1376.34 18.923 1375.98 19.8706C1375.12 22.2175 1354.67 32.2996 1355.36 30.0403C1357.67 22.493 1358.81 16.3006 1359.26 8.8075L1359.79 0H1350.74H1341.7L1341.14 7.4525C1337.05 62.0382 1276.9 96.6196 1226.81 73.179C1200.06 60.6597 1182.97 36.1866 1179.98 6.0975L1179.37 0H1170.27H1161.17L1161.77 7.29532C1166.95 69.2522 1225.03 111.022 1285.16 96.0316C1292.54 94.1906 1292.49 93.9241 1286.95 105.144C1281.2 116.812 1282.97 116.097 1260.02 116.014C1197.16 115.787 1149.61 71.0246 1143.75 6.54917L1143.15 0H1134.07H1124.98L1125.61 8.24924C1131.1 80.9016 1188.48 134.595 1260.7 134.664C1268.79 134.672 1275.4 134.965 1275.39 135.315C1275.39 135.665 1275.01 137.374 1274.56 139.113C1274.1 140.852 1273.25 144.67 1272.66 147.597L1271.6 152.92L1256.09 152.411C1177.02 149.818 1112.11 87.5375 1108.31 10.6142L1107.79 0H1098.34H1088.89L1089.2 4.51757L1089.51 9.03424H1080.47H1071.42L1071.74 4.51757L1072.05 0H1062.46H1052.88V5.40284C1052.88 10.2691 1052.68 10.8508 1050.84 11.2591C1049.72 11.5085 1046.04 12.3287 1042.65 13.083C1039.26 13.8364 1036.11 14.4533 1035.66 14.4533C1035.2 14.4533 1035.08 11.3558 1035.4 7.22667L1035.96 0H1026.86H1017.76L1017.12 7.00083C1015.76 21.9889 1016.66 20.549 1005.05 26.3304C995.933 30.8732 994.859 31.2201 995.249 29.492C997.889 17.7939 998.638 13.541 999.16 7.29532L999.77 0H990.665H981.562L980.956 6.0975C975.5 60.9497 921.498 94.6946 870.565 75.0796C842.604 64.311 821.995 36.8605 819.791 7.4525L819.233 0H810.073H800.915L801.538 8.52024C805.958 68.8728 865.586 111.025 925.166 95.915C928.742 95.009 931.667 94.345 931.667 94.4408C931.667 95.9927 921.246 114.727 920.119 115.2C916.48 116.731 889.753 116.754 881.012 115.236C827.86 106.002 787.318 61.7284 783.677 8.9421L783.061 0H774.009H764.957L765.48 9.71083C769.228 79.3163 828.839 134.664 900.064 134.669L915.045 134.67L913.08 143.441L911.116 152.212L895.838 152.101C818.939 151.543 754.887 91.0831 747.859 12.4208L746.75 0H737.898H729.046V4.51667V9.03333H720H710.954V4.51667V0H701.909H692.863V5.30889V10.6169L684.496 12.5419C679.895 13.5997 675.824 14.4633 675.45 14.4597C675.077 14.456 674.772 11.2013 674.772 7.22667V0H665.856H656.939L656.314 9.07398C655.97 14.0649 655.401 18.923 655.05 19.8706C654.181 22.2175 633.736 32.2996 634.428 30.0403C636.738 22.493 637.874 16.3006 638.324 8.8075L638.853 0H629.81H620.767L620.209 7.4525C618.005 36.8605 597.396 64.311 569.435 75.0796C518.502 94.6946 464.5 60.9497 459.044 6.0975L458.438 0H449.335H440.23L440.84 7.29532C446.01 69.2107 504.134 111.012 564.222 96.0316C571.606 94.1906 571.553 93.9241 566.018 105.144C560.262 116.812 562.032 116.097 539.088 116.014C476.467 115.787 428.39 70.6967 422.854 7.00083L422.245 0H413.147H404.049L404.672 8.24924C410.164 80.9016 467.544 134.595 539.766 134.664C547.851 134.672 554.463 134.965 554.46 135.315C554.457 135.665 554.08 137.374 553.622 139.113C553.164 140.852 552.311 144.67 551.727 147.597L550.665 152.92L535.153 152.411C456.094 149.818 391.175 87.5249 387.379 10.6142L386.856 0H377.403H367.951L368.264 4.51757L368.578 9.03424H359.533H350.487L350.801 4.51757L351.114 0H341.529H331.943V5.40284C331.943 10.2691 331.742 10.8508 329.908 11.2591C328.788 11.5085 325.1 12.3287 321.711 13.083C318.322 13.8364 315.18 14.4533 314.729 14.4533C314.26 14.4533 314.148 11.3558 314.467 7.22667L315.025 0H305.923H296.82L296.183 7.00083C294.821 21.9889 295.72 20.549 284.117 26.3304C274.998 30.8732 273.924 31.2201 274.314 29.492C276.954 17.7939 277.703 13.541 278.225 7.29532L278.835 0H269.73H260.627L260.021 6.0975C254.566 60.9497 200.563 94.6946 149.63 75.0796C121.669 64.311 101.06 36.8605 98.8563 7.4525L98.2981 0H89.1386H79.9799L80.6031 8.52024C85.0228 68.8728 144.651 111.025 204.231 95.915C207.807 95.009 210.732 94.345 210.732 94.4408C210.732 95.9927 200.311 114.727 199.184 115.2C195.545 116.731 168.818 116.754 160.077 115.236C106.925 106.002 66.3834 61.7284 62.7426 8.9421L62.1257 0H53.0737H44.0218L44.5446 9.71083C48.3067 79.5764 107.813 134.638 179.581 134.661L194.111 134.665L192.145 143.438L190.181 152.212L174.903 152.101C98.0747 151.544 33.945 91.0108 26.9238 12.4208L25.8148 0H16.9628H8.11073V4.51667ZM116.225 5.19417C122.797 61.9271 190.878 83.412 227.756 40.3925C235.89 30.9048 242.392 14.5852 242.392 3.66121V0H233.523H224.654L223.534 6.65576C218.465 36.7846 186.586 53.4105 159.378 40.117C146.909 34.025 136.01 18.7731 134.982 5.97645L134.501 0H125.062H115.623L116.225 5.19417ZM152.313 3.80123C155.015 20.6719 171.75 30.8055 188.24 25.5553C197.395 22.6402 206.21 11.3549 206.21 2.54921V0H197.164C189.475 0 188.118 0.2168 188.118 1.44533C188.118 9.60876 172.859 10.7524 171.248 2.7091L170.706 0H161.205H151.704L152.313 3.80123ZM476.673 3.66121C476.673 14.5852 483.175 30.9048 491.309 40.3925C528.187 83.412 596.268 61.9271 602.84 5.19417L603.442 0H594.003H584.564L584.083 5.97645C583.055 18.7731 572.156 34.025 559.687 40.117C532.479 53.4105 500.601 36.7846 495.531 6.65576L494.412 0H485.542H476.673V3.66121ZM512.856 2.54921C512.856 11.3549 521.671 22.6402 530.825 25.5553C547.315 30.8055 564.05 20.6719 566.752 3.80123L567.361 0H557.86H548.36L547.817 2.7091C546.206 10.7524 530.947 9.60876 530.947 1.44533C530.947 0.2168 529.59 0 521.901 0H512.856V2.54921ZM837.16 5.19417C843.732 61.9271 911.813 83.412 948.691 40.3925C956.825 30.9048 963.327 14.5852 963.327 3.66121V0H954.458H945.588L944.469 6.65576C939.399 36.7846 907.521 53.4105 880.313 40.117C867.844 34.025 856.945 18.7731 855.917 5.97645L855.436 0H845.997H836.558L837.16 5.19417ZM873.248 3.80123C875.95 20.6719 892.685 30.8055 909.175 25.5553C918.329 22.6402 927.144 11.3549 927.144 2.54921V0H918.099C910.41 0 909.053 0.2168 909.053 1.44533C909.053 9.60876 893.794 10.7524 892.183 2.7091L891.64 0H882.14H872.639L873.248 3.80123ZM1197.61 3.66121C1197.61 14.5852 1204.11 30.9048 1212.24 40.3925C1249.12 83.412 1317.2 61.9271 1323.78 5.19417L1324.38 0H1314.94H1305.5L1305.02 5.97645C1303.99 18.7731 1293.09 34.025 1280.62 40.117C1253.41 53.4105 1221.54 36.7846 1216.47 6.65576L1215.35 0H1206.48H1197.61V3.66121ZM1233.79 2.54921C1233.79 11.3549 1242.61 22.6402 1251.76 25.5553C1268.25 30.8055 1284.98 20.6719 1287.69 3.80123L1288.3 0H1278.8H1269.29L1268.75 2.7091C1267.14 10.7524 1251.88 9.60876 1251.88 1.44533C1251.88 0.2168 1250.52 0 1242.84 0H1233.79V2.54921ZM371.771 33.875C372.568 37.3528 373.492 41.2607 373.825 42.5587L374.431 44.9201L356.579 45.4169C281.945 47.4964 225.099 104.872 224.815 178.408L224.753 194.668L215.959 192.885L207.164 191.103L206.542 187.013C205.699 181.475 207.62 158.604 209.767 148.598C225.01 77.5927 288.232 26.5851 359.953 27.4297L370.324 27.5517L371.771 33.875ZM731.34 29.5842C731.627 30.9509 732.449 34.5904 733.167 37.6744C733.885 40.7575 734.473 43.6518 734.473 44.1062C734.473 44.5605 726.637 45.1576 717.06 45.4331C641.625 47.5984 585.18 105.3 585.156 180.271L585.152 194.781L576.367 192.818L567.582 190.856L567.693 175.599C568.285 93.9783 635.951 28.1479 720.209 27.2174L730.82 27.1L731.34 29.5842ZM1092.71 33.875C1093.5 37.3528 1094.43 41.2607 1094.76 42.5587L1095.37 44.9201L1077.51 45.4169C1002.84 47.4973 946.123 104.754 945.767 178.408L945.688 194.668L936.894 192.885L928.099 191.103L927.51 187.176C925.918 176.578 929.62 149.255 934.818 133.242C955.386 69.8701 1014.99 26.6944 1080.89 27.4351L1091.26 27.5517L1092.71 33.875ZM378.981 64.6678C380.783 65.1294 382.213 67.2685 386.021 75.2016C391.179 85.9476 391.244 86.3063 387.781 84.9919C377.781 81.1952 353.611 79.9865 340.747 82.6405C292.762 92.5384 261.081 131.131 261.017 179.763C260.997 195.084 261.31 197.641 264.64 209.35C265.168 211.207 264.318 210.951 254.935 206.434C243.012 200.693 243.703 201.897 242.752 185.183C239.458 127.297 282.732 74.0462 340.762 64.5775C348.63 63.2939 373.846 63.3535 378.981 64.6678ZM739.631 64.7428C742.221 65.7265 752.561 86.2159 750.081 85.4526C675.554 62.5071 604.788 129.518 623.955 204.888C624.862 208.459 625.527 211.38 625.431 211.38C623.877 211.38 605.117 200.973 604.643 199.847C603.111 196.213 603.087 169.522 604.608 160.793C613.394 110.356 653.584 71.3272 704.17 64.1096C710.604 63.1909 736.775 63.6588 739.631 64.7428ZM1099.92 64.6678C1101.72 65.1294 1103.15 67.2685 1106.96 75.2016C1112.11 85.9476 1112.18 86.3063 1108.72 84.9919C1098.72 81.1952 1074.55 79.9865 1061.68 82.6405C1013.68 92.5429 982.016 131.11 981.952 179.763C981.932 195.084 982.245 197.641 985.574 209.35C986.103 211.207 985.252 210.951 975.87 206.434C963.947 200.693 964.638 201.897 963.687 185.183C960.4 127.431 1003.8 74.0236 1061.7 64.5775C1069.56 63.2939 1094.78 63.3535 1099.92 64.6678ZM375.077 100.676C427.39 111.793 455.177 167.147 432.366 214.801C400.316 281.755 302.473 273.256 281.713 201.713C265.213 144.852 317.366 88.4137 375.077 100.676ZM741.5 102.044C831.18 128.69 813.296 260.438 720 260.438C621.383 260.438 610.204 118.753 707.336 99.943C713.312 98.7858 735.029 100.122 741.5 102.044ZM1094.1 100.316C1147.54 109.77 1176.99 167.965 1152.7 216.157C1122.9 275.308 1038.04 275.308 1008.23 216.157C978.687 157.524 1029.55 88.8997 1094.1 100.316ZM-0.934872 125.826V135.252L5.0497 135.732C17.8637 136.759 33.1363 147.644 39.2367 160.095C52.5482 187.266 35.8997 219.102 5.72993 224.164L-0.934872 225.282V234.139V242.997H2.26908C24.3983 242.997 48.5844 226.016 57.4346 204.266C73.6235 164.477 47.7594 122.026 4.26635 117.001L-0.934872 116.4V125.826ZM350.385 117.376C289.655 127.002 276.565 209.245 331.457 236.298C385.429 262.897 442.466 206.223 416.08 152.212C404.267 128.029 376.401 113.253 350.385 117.376ZM710.734 117.455C663.424 124.88 640.762 180.702 669.814 218.253C706.783 266.038 782.763 240.157 782.808 179.763C782.836 141.368 748.348 111.552 710.734 117.455ZM1071.32 117.376C1010.59 127.002 997.5 209.245 1052.39 236.298C1106.36 262.897 1163.4 206.223 1137.02 152.212C1125.2 128.029 1097.34 113.253 1071.32 117.376ZM1431.67 117.51C1390.02 123.602 1365.84 169.224 1384.01 207.413C1393.51 227.386 1417.08 242.997 1437.73 242.997H1440.93V234.139V225.282L1434.27 224.164C1404.1 219.102 1387.45 187.266 1400.76 160.095C1406.86 147.644 1422.14 136.759 1434.95 135.732L1440.93 135.252V125.891C1440.93 115.231 1441.81 116.026 1431.67 117.51ZM372.954 137.327C405.346 147.318 414.982 189.08 390.231 212.202C360.073 240.375 312.355 217.796 314.996 176.602C316.81 148.279 345.479 128.852 372.954 137.327ZM739.177 139.778C778.892 159.432 770.32 216.782 726.558 224.187C697.108 229.172 670.02 201.295 675.976 172.132C681.982 142.719 713.014 126.833 739.177 139.778ZM1093.89 137.327C1126.28 147.318 1135.92 189.08 1111.17 212.202C1081.01 240.375 1033.29 217.796 1035.93 176.602C1037.75 148.279 1066.41 128.852 1093.89 137.327ZM475.791 167.537C484.774 238.868 421.09 303.669 349.246 296.301C343.461 295.708 338.578 295.077 338.394 294.898C337.687 294.208 328.44 275.101 328.692 274.849C328.839 274.703 332.581 275.489 337.009 276.596C382.455 287.959 434.596 260.938 451.451 217.288C458.733 198.431 460.558 174.597 456.077 156.883C454.967 152.496 454.059 148.83 454.059 148.736C454.059 148.642 458.694 150.808 464.358 153.549L474.657 158.535L475.791 167.537ZM1196.73 167.537C1205.71 238.856 1142.01 303.668 1070.18 296.301C1064.4 295.708 1059.51 295.077 1059.33 294.898C1058.62 294.208 1049.38 275.101 1049.63 274.849C1049.77 274.703 1053.52 275.489 1057.94 276.596C1070.27 279.679 1092.31 279.449 1104.89 276.107C1160.11 261.436 1190.92 206.476 1175.39 150.359C1174.95 148.763 1176.31 149.2 1185.23 153.521L1195.59 158.535L1196.73 167.537ZM825.747 153.99C836.896 159.432 836.255 157.792 836.172 180.667C835.965 237.859 797.293 284.21 740.805 294.975C731.519 296.745 710.273 297.142 702.813 295.685L698.743 294.89L693.552 284.526C690.697 278.826 688.357 274.078 688.35 273.976C688.345 273.874 689.867 274.322 691.732 274.972C707.493 280.464 732.329 280.06 751.207 274.005C797.749 259.077 828.022 207.276 817.37 160.793C814.72 149.233 814.654 148.789 815.627 149.155C816.134 149.345 820.688 151.522 825.747 153.99ZM-0.934872 161.92V171.408L1.77791 171.949C9.83211 173.558 8.68694 188.797 0.512426 188.797C-0.717777 188.797 -0.934872 190.152 -0.934872 197.83V206.863H1.6178C10.4355 206.863 21.7361 198.06 24.6552 188.919C29.9125 172.451 19.7651 155.738 2.87152 153.04L-0.934872 152.432V161.92ZM352.296 153.873C322.085 163.867 327.948 206.431 359.533 206.405C394.355 206.377 395.748 155.41 360.992 153.025C358.199 152.832 354.286 153.214 352.296 153.873ZM711.243 154.284C692.187 161.085 686.763 184.565 700.958 198.8C721.512 219.412 755.484 197.593 745.273 170.339C740.266 156.976 724.518 149.546 711.243 154.284ZM1073.23 153.873C1043.02 163.867 1048.88 206.431 1080.47 206.405C1115.29 206.377 1116.68 155.41 1081.93 153.025C1079.13 152.832 1075.22 153.214 1073.23 153.873ZM1432.18 154.34C1405.33 163.606 1410.44 206.863 1438.38 206.863H1440.93V197.83C1440.93 190.445 1440.69 188.797 1439.59 188.797C1431.44 188.797 1430.2 173.551 1438.22 171.949L1440.93 171.408V162.035C1440.93 151.253 1440.99 151.299 1432.18 154.34ZM504.897 167.574L511.864 169.085L512.472 173.133C512.807 175.359 512.79 181.725 512.435 187.279C507.278 268.061 444.337 329.864 364.879 332.167L348.516 332.641L346.948 324.758C346.086 320.423 345.202 316.411 344.984 315.844C344.697 315.096 348.762 314.803 359.749 314.778C436.337 314.608 496.736 252.607 494.621 176.333C494.323 165.612 494.375 165.24 496.121 165.643C497.116 165.874 501.066 166.742 504.897 167.574ZM860.981 166.576C863.789 167.272 867.613 168.103 869.479 168.424L872.871 169.006V179.603C872.871 262.805 808.019 329.839 725.246 332.194L709.236 332.649L708.754 330.505C706.354 319.828 705.527 315.963 705.527 315.433C705.527 315.092 712.142 314.79 720.226 314.764C795.788 314.517 854.774 255.463 854.847 179.989C854.855 171.916 855.09 165.31 855.368 165.31C855.647 165.31 858.173 165.88 860.981 166.576ZM1225.83 167.574L1232.8 169.085L1233.41 173.133C1233.74 175.359 1233.72 181.725 1233.37 187.279C1228.21 268.061 1165.27 329.864 1085.81 332.167L1069.45 332.641L1067.88 324.758C1067.02 320.423 1066.14 316.411 1065.92 315.844C1065.63 315.096 1069.7 314.803 1080.68 314.778C1157.27 314.608 1217.67 252.607 1215.56 176.333C1215.26 165.612 1215.31 165.24 1217.06 165.643C1218.05 165.874 1222 166.742 1225.83 167.574ZM188.118 179.763V188.797H179.073H170.027V179.763V170.73H179.073H188.118V179.763ZM549.038 179.763V188.797H539.992H530.947V179.763V170.73H539.992H549.038V179.763ZM909.053 179.763V188.797H900.008H890.962V179.763V170.73H900.008H909.053V179.763ZM1269.97 179.763V188.797H1260.93H1251.88V179.763V170.73H1260.93H1269.97V179.763ZM365.695 174.167C371.13 179.832 367.43 188.345 359.533 188.345C356.023 188.345 354.935 187.915 353.122 185.81C348.169 180.061 351.979 171.633 359.533 171.633C362.441 171.633 363.801 172.192 365.695 174.167ZM724.573 172.564C731.824 176.439 728.343 188.797 720 188.797C716.562 188.797 710.954 183.785 710.954 180.712C710.954 173.912 718.57 169.355 724.573 172.564ZM1086.63 174.167C1092.06 179.832 1088.37 188.345 1080.47 188.345C1076.96 188.345 1075.87 187.915 1074.06 185.81C1069.1 180.061 1072.91 171.633 1080.47 171.633C1083.38 171.633 1084.74 172.192 1086.63 174.167ZM206.221 209.615C277.472 222.427 329.59 282.647 331.682 354.576L332.155 370.855L324.206 372.505C319.834 373.413 315.818 374.323 315.281 374.529C314.607 374.787 314.294 370.212 314.271 359.762C314.1 283.263 252.031 222.96 175.638 225.074C164.902 225.371 164.529 225.318 164.934 223.575C165.164 222.581 166.033 218.642 166.864 214.82C168.114 209.076 168.715 207.795 170.332 207.427C174.336 206.517 196.514 207.87 206.221 209.615ZM553.109 207.803C633.626 215.396 695.903 284.898 692.705 363.592L692.411 370.818L685.627 372.256C681.895 373.046 677.926 373.988 676.807 374.349L674.772 375.005V361.911C674.772 285.132 616.781 225.824 541.349 225.46L525.067 225.382L526.85 216.611C528.34 209.282 528.935 207.78 530.468 207.475C534.113 206.75 543.355 206.883 553.109 207.803ZM927.156 209.615C998.343 222.416 1050.81 283.013 1052.67 354.576L1053.09 370.855L1045.14 372.505C1040.77 373.413 1036.75 374.323 1036.22 374.529C1035.54 374.787 1035.23 370.212 1035.21 359.762C1035.04 283.263 972.966 222.96 896.573 225.074C885.837 225.371 885.464 225.318 885.868 223.575C886.099 222.581 886.967 218.642 887.799 214.82C889.049 209.076 889.65 207.795 891.267 207.427C895.271 206.517 917.448 207.87 927.156 209.615ZM1274.04 207.803C1354.29 215.371 1416.2 284.076 1413.61 362.687L1413.35 370.817L1406.56 372.255C1402.83 373.046 1398.92 373.97 1397.87 374.31C1395.98 374.919 1395.95 374.734 1395.46 357.064C1393.37 282.495 1335.94 225.728 1262.28 225.444L1246 225.382L1247.78 216.611C1249.27 209.282 1249.87 207.78 1251.4 207.475C1255.05 206.75 1264.29 206.883 1274.04 207.803ZM201.664 245.249C260.163 256.913 301.744 312.147 295.769 370.251C295.175 376.028 294.543 380.905 294.363 381.088C293.673 381.795 274.54 391.029 274.288 390.777C274.141 390.63 274.928 386.893 276.037 382.471C279.124 370.157 278.894 348.154 275.547 335.588C260.847 280.41 205.861 249.68 149.593 265.194C147.889 265.664 155.396 248.325 158.108 245.527C160.629 242.925 189.101 242.744 201.664 245.249ZM555.988 244.397C616.05 253.303 658.74 304.383 656.359 364.495C655.677 381.702 656.343 380.454 644.707 386.282C633.038 392.126 633.718 392.278 636.047 384.356C640.208 370.199 639.267 344.863 633.981 328.758C618.118 280.424 564.682 250.934 516.099 263.701C512.16 264.735 508.84 265.481 508.72 265.355C508.293 264.912 518.319 245.25 519.107 244.985C525.124 242.952 544.199 242.649 555.988 244.397ZM922.599 245.249C981.078 256.909 1022.68 312.166 1016.7 370.251C1016.11 376.028 1015.48 380.905 1015.3 381.088C1014.61 381.795 995.475 391.029 995.223 390.777C995.076 390.63 995.863 386.893 996.972 382.471C1008.35 337.067 981.312 285.025 937.583 268.184C918.7 260.912 894.834 259.09 877.096 263.565C872.703 264.673 869.033 265.58 868.938 265.58C868.844 265.58 871.013 260.947 873.758 255.283L878.75 244.987L885.082 244.048C893.195 242.845 913.864 243.507 922.599 245.249ZM1276.92 244.397C1336.98 253.303 1379.67 304.383 1377.29 364.495C1376.61 381.702 1377.28 380.454 1365.64 386.282C1353.97 392.126 1354.65 392.278 1356.98 384.356C1361.14 370.199 1360.2 344.863 1354.92 328.758C1339.05 280.424 1285.62 250.934 1237.03 263.701C1233.09 264.735 1229.78 265.481 1229.65 265.355C1229.23 264.912 1239.25 245.25 1240.04 244.985C1246.06 242.952 1265.13 242.649 1276.92 244.397ZM201.043 282.246C260.48 299.562 280.005 372.943 236.808 416.65C195.026 458.926 122.398 442.65 102.925 386.647C81.6226 325.385 139.121 264.205 201.043 282.246ZM553.998 280.508C612.106 290.627 639.896 358.767 605.566 406.952C569.051 458.203 489.294 449.034 465.015 390.795C440.633 332.306 491.242 269.579 553.998 280.508ZM921.978 282.246C981.414 299.562 1000.94 372.943 957.743 416.65C913.377 461.54 837.382 440.527 821.767 379.05C806.745 319.915 863.405 265.181 921.978 282.246ZM1274.93 280.508C1339.86 291.815 1364.24 373.22 1316.24 418.439C1264.56 467.127 1180.16 430.868 1180.16 359.978C1180.16 309.338 1224.93 271.799 1274.93 280.508ZM164.154 298.6C124.441 308.599 104.522 353.08 123.519 389.337C147.231 434.589 213.051 433.815 235.684 388.016C259.304 340.219 215.639 285.635 164.154 298.6ZM526.562 298.167C486.927 305.951 465.184 351.193 483.381 388.016C506.014 433.815 571.834 434.589 595.546 389.337C620.265 342.164 579.159 287.837 526.562 298.167ZM885.089 298.6C845.376 308.599 825.456 353.08 844.454 389.337C868.141 434.541 934.01 433.765 956.619 388.016C980.235 340.227 936.565 285.638 885.089 298.6ZM1246.45 298.479C1200.04 309.031 1181.76 367.205 1213.88 402.202C1252.86 444.69 1323.71 417.454 1323.71 359.978C1323.71 319.615 1285.9 289.513 1246.45 298.479ZM190.342 316.646C223.715 325.327 235.203 365.391 211.555 390.635C184.036 420.013 134.749 400.34 134.749 359.978C134.749 330.613 162.094 309.299 190.342 316.646ZM556.378 318.352C582.666 329.008 592.64 361.494 576.832 384.979C555.232 417.07 505.027 407.85 496.128 370.158C487.924 335.409 523.337 304.96 556.378 318.352ZM911.277 316.646C944.65 325.327 956.137 365.391 932.49 390.635C904.971 420.013 855.684 400.34 855.684 359.978C855.684 330.613 883.029 309.299 911.277 316.646ZM1277.31 318.352C1314.43 333.397 1314.43 386.656 1277.31 401.586C1252.34 411.63 1223.27 396.467 1217.06 370.158C1208.86 335.409 1244.27 304.96 1277.31 318.352ZM84.4701 330.846C74.0152 363.514 82.9731 402.246 106.886 427.775C126.018 448.199 149.91 458.322 179.073 458.36C194.414 458.38 196.975 458.068 208.7 454.742C210.559 454.215 210.303 455.064 205.78 464.433C200.03 476.34 201.236 475.651 184.5 476.6C117.114 480.425 59.886 423.492 62.7353 355.462C63.4789 337.708 62.7634 339.094 74.0206 333.62C85.1684 328.2 85.3304 328.157 84.4701 330.846ZM445.014 329.194C445.014 329.403 444.113 333.163 443.014 337.549C425.246 408.385 495.423 475.94 565.711 455.664C568.164 454.956 570.41 454.377 570.702 454.377C570.994 454.377 568.987 459.005 566.242 464.662L561.25 474.946L552.236 476.079C480.833 485.046 415.921 421.426 423.296 349.706C423.89 343.929 424.531 339.044 424.72 338.85C426.083 337.456 445.014 328.447 445.014 329.194ZM805.405 330.846C794.95 363.514 803.908 402.246 827.821 427.775C846.952 448.199 870.845 458.322 900.008 458.36C915.349 458.38 917.91 458.068 929.635 454.742C931.494 454.215 931.238 455.064 926.715 464.433C920.965 476.34 922.171 475.651 905.435 476.6C838.049 480.425 780.821 423.492 783.67 355.462C784.414 337.708 783.698 339.094 794.956 333.62C806.103 328.2 806.265 328.157 805.405 330.846ZM1165.95 329.194C1165.95 329.403 1165.05 333.163 1163.95 337.549C1152.58 382.862 1179.67 434.951 1223.35 451.772C1242.23 459.044 1266.1 460.867 1283.84 456.392C1288.23 455.284 1291.9 454.377 1292 454.377C1292.09 454.377 1289.92 459.005 1287.18 464.662L1282.18 474.946L1273.17 476.079C1201.77 485.046 1136.86 421.426 1144.23 349.706C1144.83 343.929 1145.47 339.044 1145.65 338.85C1147.02 337.456 1165.95 328.447 1165.95 329.194ZM174.983 333.405C158.001 335.576 147.325 355.069 154.492 370.818C166.669 397.575 205.727 389.315 205.751 359.978C205.764 342.356 192.769 331.132 174.983 333.405ZM535.342 333.395C509.792 337.413 504.374 372.32 527.51 383.864C538.211 389.205 551.214 387.137 559.17 378.831C577.149 360.056 561.047 329.354 535.342 333.395ZM895.918 333.405C863.487 337.55 867.329 386.576 900.089 386.618C916.298 386.638 926.672 376.247 926.686 359.978C926.699 342.356 913.704 331.132 895.918 333.405ZM1256.28 333.395C1230.73 337.413 1225.31 372.32 1248.44 383.864C1259.15 389.205 1272.15 387.137 1280.1 378.831C1298.08 360.056 1281.98 329.354 1256.28 333.395ZM44.5437 362.914C46.6296 437.61 104.187 494.3 178.168 494.526L193.998 494.575L192.212 503.357L190.428 512.14L186.496 512.728C175.883 514.318 148.523 510.621 132.488 505.43C68.331 484.665 23.6827 421.966 26.3602 356.399L26.6542 349.207L34.7953 347.244C39.2729 346.165 43.186 345.234 43.4908 345.177C43.7957 345.12 44.2696 353.101 44.5437 362.914ZM404.794 360.204C404.966 436.706 467.23 497.149 543.546 494.898C554.165 494.586 554.533 494.637 554.131 496.382C553.901 497.375 553.032 501.319 552.199 505.146L550.685 512.103L546.632 512.71C535.544 514.371 508.727 510.58 491.883 504.971C430.624 484.571 388.983 428.956 387.332 365.331L386.908 349.005L395.382 347.157C400.042 346.142 404.06 345.258 404.308 345.193C404.557 345.128 404.776 351.883 404.794 360.204ZM765.479 362.914C767.562 437.523 824.9 494.141 898.733 494.496L915.098 494.575L913.973 498.842C913.354 501.189 912.569 505.132 912.228 507.606L911.609 512.103L907.392 512.743C896.706 514.363 868.856 510.466 852.066 504.999C789.213 484.537 744.644 421.322 747.295 356.399L747.589 349.207L755.73 347.244C760.208 346.165 764.121 345.234 764.426 345.177C764.731 345.12 765.205 353.101 765.479 362.914ZM1125.73 360.204C1125.9 436.706 1188.16 497.149 1264.48 494.898C1275.1 494.586 1275.47 494.637 1275.07 496.382C1274.84 497.375 1273.97 501.319 1273.13 505.146L1271.62 512.103L1267.57 512.71C1265.34 513.045 1258.96 513.027 1253.4 512.673C1172.52 507.523 1110.62 444.668 1108.32 365.331L1107.84 349.005L1116.32 347.157C1120.98 346.142 1124.99 345.258 1125.24 345.193C1125.49 345.128 1125.71 351.883 1125.73 360.204ZM729.046 359.978V369.012H720H710.954V359.978V350.945H720H729.046V359.978ZM185.128 353.576C187.235 355.387 187.666 356.473 187.666 359.978C187.666 368.018 178.794 371.688 173.272 365.932C165.627 357.964 176.746 346.377 185.128 353.576ZM368.126 359.978V368.56H359.533H350.939V359.978V351.397H359.533H368.126V359.978ZM545.596 353.824C551.085 359.075 547.402 368.56 539.874 368.56C534.593 368.56 531.399 365.326 531.399 359.978C531.399 352.091 539.924 348.397 545.596 353.824ZM906.063 353.576C908.17 355.387 908.601 356.473 908.601 359.978C908.601 368.018 899.729 371.688 894.207 365.932C886.562 357.964 897.681 346.377 906.063 353.576ZM1089.06 359.978V368.56H1080.47H1071.87V359.978V351.397H1080.47H1089.06V359.978ZM1266.53 353.824C1272.02 359.075 1268.34 368.56 1260.81 368.56C1255.53 368.56 1252.33 365.326 1252.33 359.978C1252.33 352.091 1260.86 348.397 1266.53 353.824ZM372.153 395.377C372.995 399.614 373.863 403.545 374.081 404.112C374.368 404.86 370.303 405.154 359.316 405.178C282.696 405.35 222.328 467.318 224.445 543.623C224.742 554.345 224.69 554.717 222.944 554.313C221.949 554.083 218 553.215 214.168 552.383L207.201 550.872L206.593 546.824C204.276 531.398 210.514 498.885 219.86 477.677C244.526 421.701 304.838 384.18 365.01 387.376L370.621 387.675L372.153 395.377ZM730.712 388.022C731.065 388.338 734.415 402.871 734.449 404.242C734.464 404.806 728.954 405.163 719.774 405.193C644.212 405.439 585.226 464.494 585.153 539.967C585.145 548.042 584.91 554.647 584.632 554.647C584.353 554.647 581.827 554.077 579.019 553.381C576.211 552.685 572.329 551.843 570.392 551.509L566.871 550.903L567.382 535.386C569.737 463.737 619.475 404.702 689.697 390.207C701.895 387.689 728.734 386.259 730.712 388.022ZM1093.09 395.377C1093.93 399.614 1094.8 403.545 1095.02 404.112C1095.3 404.86 1091.24 405.154 1080.25 405.178C1003.63 405.35 943.263 467.318 945.38 543.623C945.677 554.345 945.625 554.717 943.879 554.313C942.884 554.083 938.934 553.215 935.103 552.383L928.136 550.872L927.528 546.824C925.211 531.398 931.449 498.885 940.795 477.677C965.453 421.721 1025.85 384.158 1085.99 387.376L1091.56 387.675L1093.09 395.377ZM371.69 423.788L380.745 424.817L385.689 434.832C391.558 446.724 391.938 445.832 382.056 443.361C336.59 431.993 284.478 458.999 267.614 502.669C260.332 521.526 258.507 545.359 262.988 563.074C264.098 567.46 265.006 571.142 265.006 571.255C265.006 571.369 260.438 569.169 254.855 566.367C242.68 560.255 243.036 561.024 242.937 540.645C242.6 470.815 303.007 415.989 371.69 423.788ZM737.637 424.419C741.197 425.038 741.336 425.212 746.364 435.284C750.915 444.398 751.263 445.471 749.532 445.081C748.464 444.841 744.536 443.921 740.805 443.039C670.748 426.465 606.119 493.515 623.838 564.39C625.68 571.757 625.961 571.702 614.729 566.176C603.04 560.426 603.745 562.163 603.828 539.29C604.088 467.742 668.543 412.41 737.637 424.419ZM1092.62 423.788L1101.68 424.817L1106.62 434.832C1112.49 446.724 1112.87 445.832 1102.99 443.361C1057.53 431.993 1005.41 458.999 988.549 502.669C981.267 521.526 979.442 545.359 983.923 563.074C985.033 567.46 985.941 571.142 985.941 571.255C985.941 571.369 981.373 569.169 975.79 566.367C963.614 560.255 963.971 561.024 963.872 540.645C963.535 470.815 1023.94 415.989 1092.62 423.788ZM377.012 461.116C437.59 473.861 461.032 549.477 418.504 594.954C367.17 649.848 274.742 610.599 278.886 535.668C281.101 495.645 309.53 465.76 351.392 459.452C356.056 458.749 370.093 459.66 377.012 461.116ZM730.563 459.863C780.277 466.681 812.703 517.948 796.922 564.781C771.877 639.113 668.268 638.98 643.022 564.583C624.381 509.653 672.642 451.921 730.563 459.863ZM1097.95 461.116C1158.59 473.873 1182.08 550.093 1139.27 595.181C1087.52 649.682 995.683 610.488 999.821 535.668C1002.04 495.645 1030.47 465.76 1072.33 459.452C1076.99 458.749 1091.03 459.66 1097.95 461.116ZM-0.934872 485.817V494.674L5.72993 495.793C35.8997 500.855 52.5482 532.69 39.2367 559.862C33.1363 572.313 17.8637 583.197 5.0497 584.224L-0.934872 584.704V594.13V603.557L4.26635 602.956C55.336 597.055 79.6823 540.577 48.3782 500.624C37.7568 487.067 18.2599 476.96 2.73131 476.96H-0.934872V485.817ZM345.512 478.361C306.435 486.719 285.203 531.345 302.985 567.745C325.873 614.596 393.184 614.596 416.082 567.745C439.257 520.326 397.369 467.271 345.512 478.361ZM705.046 478.656C657.442 490.352 640.67 549.574 675.211 584.005C715.404 624.07 782.85 596.607 782.808 540.193C782.777 498.803 744.933 468.855 705.046 478.656ZM1066.45 478.361C1027.37 486.719 1006.14 531.345 1023.92 567.745C1046.81 614.595 1114.13 614.595 1137.02 567.745C1160.21 520.258 1118.37 467.256 1066.45 478.361ZM1425.98 478.656C1356.96 495.614 1364.74 594.754 1435.73 602.956L1440.93 603.557V594.13V584.704L1434.95 584.224C1422.14 583.197 1406.86 572.313 1400.76 559.862C1387.43 532.646 1404.44 500.347 1434.56 495.692L1440.93 494.706V485.833V476.96L1436.64 477.027C1434.28 477.063 1429.48 477.796 1425.98 478.656ZM369.726 496.389C401.532 503.878 414.911 542.434 394.521 567.848C376.698 590.065 342.367 590.065 324.544 567.848C298.235 535.055 328.779 486.748 369.726 496.389ZM728.244 495.944C770.567 503.909 777.971 560.981 739.173 580.18L731.444 584.005H720H708.556L700.827 580.18C654.295 557.154 677.336 486.362 728.244 495.944ZM1090.66 496.389C1122.47 503.878 1135.85 542.434 1115.46 567.848C1097.63 590.065 1063.3 590.065 1045.48 567.848C1019.17 535.055 1049.71 486.748 1090.66 496.389ZM465.024 513.828C476.111 519.268 475.382 517.889 476.349 535.225C480.083 602.116 422.901 659.208 355.01 656.373C337.18 655.628 338.633 656.396 333.044 644.755C327.419 633.035 327.236 633.789 335.122 636.181C343.913 638.845 373.515 639.068 382.547 636.537C429.847 623.282 457.986 587.374 458.048 540.193C458.068 524.833 457.771 522.412 454.395 510.488C454.058 509.301 454.151 508.51 454.6 508.725C455.049 508.939 459.74 511.235 465.024 513.828ZM824.72 513.56C836.615 519.502 835.911 518.147 836.452 536.128C838.159 592.849 802.189 639.798 746.287 653.816C736.164 656.355 705.24 657.352 700.369 655.297C697.761 654.198 687.487 633.755 689.919 634.504C705.004 639.149 730.514 639.902 744.403 636.113C798.281 621.415 829.623 568.46 816.045 515.069C815.138 511.498 814.473 508.577 814.569 508.577C814.665 508.577 819.233 510.82 824.72 513.56ZM1185.96 513.828C1197.05 519.268 1196.32 517.889 1197.28 535.225C1201.02 602.116 1143.84 659.208 1075.94 656.373C1058.11 655.628 1059.57 656.396 1053.98 644.755C1048.35 633.035 1048.17 633.789 1056.06 636.181C1064.85 638.845 1094.45 639.068 1103.48 636.537C1150.78 623.282 1178.92 587.374 1178.98 540.193C1179 524.833 1178.71 522.412 1175.33 510.488C1174.99 509.301 1175.09 508.51 1175.54 508.725C1175.98 508.939 1180.67 511.235 1185.96 513.828ZM-0.934872 522.127C-0.934872 529.805 -0.717777 531.16 0.512426 531.16C8.68694 531.16 9.83211 546.398 1.77791 548.007L-0.934872 548.549V558.037V567.525L2.87152 566.917C19.7651 564.218 29.9125 547.506 24.6552 531.038C21.7361 521.896 10.4355 513.093 1.6178 513.093H-0.934872V522.127ZM350.671 514.342C322.193 524.936 329.266 566.793 359.533 566.793C394.18 566.793 395.597 514.93 360.993 513.374C356.557 513.175 352.882 513.519 350.671 514.342ZM710.054 514.669C704.109 516.764 696.388 524.842 694.41 531.038C685.685 558.37 718.844 579.288 738.996 559.163C759.55 538.637 737.639 504.949 710.054 514.669ZM1071.61 514.342C1043.13 524.936 1050.2 566.793 1080.47 566.793C1115.11 566.793 1116.53 514.93 1081.93 513.374C1077.49 513.175 1073.82 513.519 1071.61 514.342ZM1430.99 514.669C1405.57 523.627 1410.15 562.608 1437.13 566.917L1440.93 567.525V558.037V548.549L1438.22 548.007C1430.17 546.398 1431.31 531.16 1439.49 531.16C1440.72 531.16 1440.93 529.805 1440.93 522.127V513.093L1438 513.165C1436.38 513.203 1433.23 513.881 1430.99 514.669ZM512.523 532.943C513.366 538.482 511.445 561.353 509.298 571.358C493.953 642.839 427.776 695.358 356.413 692.69L348.771 692.405L346.73 683.823C345.608 679.103 344.671 675.038 344.647 674.79C344.624 674.542 350.202 674.464 357.043 674.617C432.844 676.318 494.032 616.781 494.263 541.097L494.312 525.288L503.106 527.071L511.901 528.854L512.523 532.943ZM872.307 544.358C871.714 626.065 802.802 692.778 718.923 692.849C708.259 692.858 709.367 694.141 705.959 677.844L705.371 675.028L722.861 674.524C798.376 672.353 854.81 614.688 854.827 539.683L854.83 525.172L863.624 527.137L872.419 529.1L872.307 544.358ZM1233.46 532.943C1234.3 538.482 1232.38 561.353 1230.23 571.358C1214.89 642.839 1148.71 695.358 1077.35 692.69L1069.71 692.405L1067.67 683.823C1066.54 679.103 1065.61 675.038 1065.58 674.79C1065.56 674.542 1071.14 674.464 1077.98 674.617C1154.84 676.342 1217.57 613.667 1215.56 537.154L1215.25 525.288L1224.04 527.071L1232.84 528.854L1233.46 532.943ZM188.118 540.135V549.109H179.073H170.027V540.135V531.16H179.073H188.118V540.135ZM366.091 534.341C370.91 539.881 366.951 548.323 359.533 548.323C352.557 548.323 348.427 540.563 352.393 534.91C355.47 530.522 362.513 530.23 366.091 534.341ZM549.038 540.151V549.141L539.992 549.109L530.947 549.077V540.118V531.16H539.992H549.038V540.151ZM725.97 534.231C733.168 541.419 724.498 552.241 715.427 547.393C708.177 543.518 711.657 531.16 720 531.16C722.086 531.16 723.754 532.018 725.97 534.231ZM909.053 540.135V549.109H900.008H890.962V540.135V531.16H900.008H909.053V540.135ZM1087.03 534.341C1091.84 539.881 1087.89 548.323 1080.47 548.323C1073.49 548.323 1069.36 540.563 1073.33 534.91C1076.41 530.522 1083.45 530.23 1087.03 534.341ZM1269.97 540.151V549.141L1260.93 549.109L1251.88 549.077V540.118V531.16H1260.93H1269.97V540.151ZM209.375 570.021C279.712 584.739 329.688 643.85 331.71 714.717L332.166 730.706L330.019 731.202C319.961 733.527 315.983 734.386 315.209 734.396C314.645 734.405 314.286 728.892 314.257 719.731C314.01 644.294 254.911 585.406 179.299 585.253C171.215 585.237 164.6 585.009 164.6 584.745C164.6 584.481 165.171 581.972 165.867 579.167C166.564 576.363 167.408 572.484 167.742 570.547L168.35 567.026L184.34 567.577C195.191 567.951 203.237 568.737 209.375 570.021ZM569.391 570.007C642.383 585.355 692.795 647.181 692.856 721.426L692.863 730.573L684.496 732.498C679.895 733.556 675.876 734.42 675.567 734.416C675.259 734.413 674.781 726.584 674.505 717.021C672.334 641.602 614.673 585.33 539.489 585.259L524.965 585.245L526.986 576.495C528.097 571.683 529.036 567.584 529.073 567.388C529.284 566.232 561.34 568.314 569.391 570.007ZM930.31 570.021C1000.65 584.739 1050.62 643.85 1052.64 714.717L1053.1 730.706L1050.95 731.202C1040.9 733.527 1036.92 734.386 1036.14 734.396C1035.58 734.405 1035.22 728.892 1035.19 719.731C1034.94 644.294 975.846 585.406 900.234 585.253C892.15 585.237 885.535 585.009 885.535 584.745C885.535 584.481 886.105 581.972 886.802 579.167C887.499 576.363 888.343 572.484 888.677 570.547L889.285 567.026L905.275 567.577C916.126 567.951 924.172 568.737 930.31 570.021ZM1290.33 570.007C1363.32 585.355 1413.73 647.181 1413.79 721.426L1413.8 730.573L1405.43 732.498C1400.83 733.556 1396.81 734.42 1396.5 734.416C1396.19 734.413 1395.72 726.584 1395.44 717.021C1393.27 641.602 1335.61 585.33 1260.42 585.259L1245.9 585.245L1247.92 576.495C1249.03 571.683 1249.97 567.584 1250.01 567.388C1250.22 566.232 1282.27 568.314 1290.33 570.007ZM208.471 606.923C265.636 621.753 305.9 682.229 295.152 737.12L294.356 741.185L284.117 746.287C274.998 750.83 273.924 751.177 274.314 749.449C274.555 748.382 275.475 744.46 276.359 740.733C292.955 670.771 225.814 606.231 154.843 623.925C151.716 624.705 148.956 625.142 148.71 624.897C148.337 624.523 156.822 606.49 157.936 605.292C160.767 602.246 194.66 603.341 208.471 606.923ZM559.548 604.823C605.896 612.878 642.011 646.918 653.746 693.609C656.311 703.811 657.322 734.668 655.253 739.561C654.152 742.165 633.681 752.425 634.431 749.997C639.083 734.932 639.837 709.457 636.042 695.586C621.32 641.765 568.314 610.478 514.834 624.042C511.258 624.948 508.333 625.612 508.333 625.516C508.333 625.42 510.599 620.819 513.368 615.29C518.507 605.028 518.553 604.982 524.615 604.028C530.781 603.058 552.199 603.546 559.548 604.823ZM929.406 606.923C984.503 621.216 1022.54 674.857 1016.75 730.119C1015.5 742.072 1016.6 740.602 1004.5 746.576C995.853 750.847 994.863 751.152 995.251 749.433C995.491 748.375 996.41 744.46 997.294 740.733C1013.89 670.771 946.749 606.231 875.778 623.925C872.651 624.705 869.891 625.142 869.645 624.897C869.272 624.523 877.757 606.49 878.871 605.292C881.702 602.246 915.595 603.341 929.406 606.923ZM1280.48 604.823C1326.75 612.866 1362.97 646.995 1374.68 693.609C1377.25 703.811 1378.26 734.668 1376.19 739.561C1375.09 742.165 1354.62 752.425 1355.37 749.997C1360.02 734.932 1360.77 709.457 1356.98 695.586C1342.25 641.765 1289.25 610.478 1235.77 624.042C1232.19 624.948 1229.27 625.612 1229.27 625.516C1229.27 625.42 1231.53 620.819 1234.3 615.29C1239.44 605.028 1239.49 604.982 1245.55 604.028C1251.72 603.058 1273.13 603.546 1280.48 604.823ZM197.759 641.447C250.386 652.993 276.839 715.622 248.508 761.597C206.617 829.574 102.246 803.013 98.8264 723.504C96.5044 669.494 144.426 629.746 197.759 641.447ZM556.29 640.903C618.414 653.357 642.079 731.911 597.201 776.706C554.758 819.068 481.99 802.299 463.242 745.836C443.548 686.524 494.912 628.6 556.29 640.903ZM918.694 641.447C978.717 654.616 1001.47 730.24 958.95 775.252C909.985 827.086 822.822 794.68 819.761 723.504C817.439 669.494 865.361 629.746 918.694 641.447ZM1277.22 640.903C1347.18 654.927 1364.75 748.251 1304.82 787.521C1261 816.237 1200.63 795.376 1184.18 745.836C1164.48 686.524 1215.85 628.6 1277.22 640.903ZM168.286 657.646C117.111 668.436 98.6618 728.127 135.202 764.685C174.54 804.043 242.392 775.729 242.392 719.957C242.392 681.33 205.014 649.901 168.286 657.646ZM526.931 658.154C480.091 668.628 460.66 724.397 491.311 760.382C527.264 802.59 595.077 782.378 602.508 727.239C608.104 685.711 567.929 648.986 526.931 658.154ZM889.221 657.646C838.046 668.436 819.597 728.127 856.136 764.685C895.475 804.043 963.327 775.729 963.327 719.957C963.327 681.33 925.949 649.901 889.221 657.646ZM1247.87 658.154C1201.03 668.628 1181.59 724.397 1212.25 760.382C1248.2 802.59 1316.01 782.378 1323.44 727.239C1329.04 685.711 1288.86 648.986 1247.87 658.154ZM186.309 675.719C210.03 679.413 227.506 703.24 223.557 726.506C216.142 770.21 158.714 778.769 139.031 739.104L135.202 731.385V719.957V708.529L139.031 700.81C148.139 682.456 166.612 672.652 186.309 675.719ZM548.57 676.158C562.59 679.123 573.524 687.69 580.034 700.81L583.864 708.529V719.957V731.385L580.034 739.104C560.351 778.769 502.924 770.21 495.508 726.506C490.435 696.617 518.665 669.832 548.57 676.158ZM907.244 675.719C930.965 679.413 948.44 703.24 944.492 726.506C937.076 770.21 879.649 778.769 859.966 739.104L856.136 731.385V719.957V708.529L859.966 700.81C869.073 682.456 887.547 672.652 907.244 675.719ZM1274.49 677.43C1299.95 685.343 1312.78 715.292 1300.94 739.16C1287.01 767.229 1251 773.393 1229.02 751.468C1196.12 718.644 1229.94 663.582 1274.49 677.43ZM83.0988 695.591C63.9791 767.36 131.43 834.335 204.231 815.872C207.807 814.966 210.732 814.302 210.732 814.397C210.732 815.949 200.311 834.684 199.184 835.157C195.545 836.687 168.818 836.711 160.077 835.192C102.653 825.217 62.8077 777.765 62.9334 719.505C62.9796 698.195 62.4115 699.464 74.6005 693.465C86.3896 687.663 85.2851 687.387 83.0988 695.591ZM443.766 694.829C425.363 768.315 490.967 834.373 564.125 816.022C571.618 814.142 571.561 813.865 566.018 825.101C560.262 836.768 562.032 836.054 539.088 835.971C481.363 835.762 435.825 797.673 424.546 740.168C422.841 731.474 422.477 710.134 423.91 702.793L424.703 698.728L434.632 693.726C446.349 687.823 445.545 687.726 443.766 694.829ZM804.034 695.591C784.914 767.36 852.364 834.335 925.166 815.872C928.742 814.966 931.667 814.302 931.667 814.397C931.667 815.949 921.246 834.684 920.119 835.157C916.48 836.687 889.753 836.711 881.012 835.192C823.588 825.217 783.743 777.765 783.868 719.505C783.914 698.195 783.346 699.464 795.535 693.465C807.325 687.663 806.22 687.387 804.034 695.591ZM1164.7 694.829C1146.29 768.366 1211.81 834.274 1285.16 815.988C1292.54 814.147 1292.49 813.881 1286.95 825.101C1281.2 836.768 1282.97 836.054 1260.02 835.971C1191.17 835.722 1137.16 776.896 1144.18 709.794C1145.43 697.869 1144.4 699.272 1156.14 693.413C1167.22 687.88 1166.47 687.756 1164.7 694.829ZM169.21 694.825C163.337 697.078 157.043 703.05 154.505 708.782C142.414 736.078 176.988 760.002 198.135 738.973C218.928 718.296 196.654 684.3 169.21 694.825ZM530.495 694.453C520.516 697.73 512.856 708.806 512.856 719.957C512.856 745.243 545.213 756.702 560.846 736.95C577.844 715.476 556.687 685.852 530.495 694.453ZM890.145 694.825C884.272 697.078 877.978 703.05 875.44 708.782C863.349 736.078 897.923 760.002 919.07 738.973C939.862 718.296 917.589 684.3 890.145 694.825ZM1251.43 694.453C1241.45 697.73 1233.79 708.806 1233.79 719.957C1233.79 745.243 1266.15 756.702 1281.78 736.95C1298.78 715.476 1277.62 685.852 1251.43 694.453ZM44.56 722.892C46.7309 798.311 104.392 854.583 179.577 854.654L194.1 854.668L192.14 863.419L190.181 872.168L174.903 872.057C94.4339 871.475 29.5669 806.51 26.4643 723.395L25.9351 709.218L28.1042 708.772C29.2964 708.526 32.7148 707.73 35.6998 707.004C44.854 704.775 43.9938 703.233 44.56 722.892ZM404.809 720.182C405.055 795.619 464.154 854.507 539.766 854.66C547.851 854.676 554.463 854.963 554.46 855.299C554.457 855.634 554.08 857.331 553.622 859.07C553.164 860.809 552.311 864.626 551.727 867.554L550.665 872.877L535.153 872.368C453.514 869.69 389.663 806.109 387.355 725.196L386.899 709.207L389.046 708.716C390.226 708.446 393.634 707.658 396.62 706.964C399.605 706.271 402.657 705.659 403.404 705.604C404.556 705.519 404.768 707.712 404.809 720.182ZM765.495 722.892C767.666 798.311 825.327 854.583 900.511 854.654L915.035 854.668L913.075 863.419L911.116 872.168L895.838 872.057C813.794 871.463 747.213 802.693 747.144 718.477L747.137 709.32L754.599 707.517C758.704 706.526 762.721 705.667 763.528 705.609C764.816 705.516 765.054 707.608 765.495 722.892ZM1125.74 720.182C1125.99 795.619 1185.09 854.507 1260.7 854.66C1268.79 854.676 1275.4 854.963 1275.39 855.299C1275.39 855.634 1275.01 857.331 1274.56 859.07C1274.1 860.809 1273.25 864.626 1272.66 867.554L1271.6 872.877L1256.09 872.368C1174.45 869.69 1110.6 806.109 1108.29 725.196L1107.83 709.207L1109.98 708.716C1111.16 708.446 1114.57 707.658 1117.55 706.964C1120.54 706.271 1123.59 705.659 1124.34 705.604C1125.49 705.519 1125.7 707.712 1125.74 720.182ZM185.631 714.548C188.781 718.003 188.851 721.659 185.833 725.241C180.305 731.801 170.932 728.357 170.932 719.765C170.932 711.529 179.955 708.327 185.631 714.548ZM368.578 719.957V728.99H359.533H350.487V719.957V710.923H359.533H368.578V719.957ZM543.629 712.287C551.528 716.367 548.809 728.498 539.996 728.498C531.816 728.498 528.227 719.782 534.022 713.995C537.403 710.619 539.632 710.223 543.629 712.287ZM729.046 719.957V728.99H720H710.954V719.957V710.923H720H729.046V719.957ZM906.566 714.548C910.073 718.393 909.885 722.016 905.978 725.919C900.166 731.723 891.867 728.103 891.867 719.765C891.867 711.529 900.89 708.327 906.566 714.548ZM1089.51 719.957V728.99H1080.47H1071.42V719.957V710.923H1080.47H1089.51V719.957ZM1264.56 712.287C1272.46 716.367 1269.74 728.498 1260.93 728.498C1252.75 728.498 1249.16 719.782 1254.96 713.995C1258.34 710.619 1260.57 710.223 1264.56 712.287ZM371.771 753.832C372.568 757.309 373.492 761.217 373.825 762.515L374.431 764.877L356.579 765.374C280.776 767.486 222.475 828.101 224.441 902.759L224.753 914.625L215.959 912.842L207.164 911.06L206.542 906.97C205.699 901.432 207.62 878.56 209.767 868.555C224.972 797.728 288.589 746.394 359.953 747.367L370.324 747.508L371.771 753.832ZM730.572 748.186C731.217 749.188 732.011 752.362 734.041 762.069L734.629 764.886L717.139 765.389C641.625 767.56 585.18 825.227 585.156 900.228L585.152 914.738L576.367 912.775L567.582 910.813L567.693 895.556C568.236 820.846 626.933 756.776 702.813 748.069C713.822 746.806 729.725 746.873 730.572 748.186ZM1092.71 753.832C1093.5 757.309 1094.43 761.217 1094.76 762.515L1095.37 764.877L1077.51 765.374C1002.72 767.458 945.963 824.929 945.737 898.817L945.688 914.625L936.894 912.842L928.099 911.06L927.477 906.97C926.634 901.432 928.555 878.56 930.702 868.555C945.907 797.728 1009.52 746.394 1080.89 747.367L1091.26 747.508L1092.71 753.832ZM378.981 784.625C380.978 785.137 391.631 804.281 390.53 805.38C390.383 805.528 387.418 804.787 383.943 803.733C374.043 800.732 345.512 800.826 334.657 803.896C298.726 814.059 272.939 839.833 263.438 875.08C260.138 887.326 259.93 912.32 263.037 923.581C265.459 932.366 266.385 932.069 254.604 926.274C243.066 920.599 243.695 921.722 242.752 905.14C239.465 847.388 282.867 793.98 340.762 784.534C348.63 783.25 373.846 783.31 378.981 784.625ZM739.631 784.699C742.221 785.683 752.561 806.173 750.081 805.409C734.996 800.764 709.486 800.011 695.597 803.8C641.719 818.499 610.377 871.453 623.955 924.844C624.862 928.415 625.527 931.337 625.431 931.337C623.877 931.337 605.117 920.929 604.643 919.804C603.111 916.17 603.087 889.479 604.608 880.75C613.389 830.336 653.608 791.28 704.17 784.066C710.604 783.148 736.775 783.615 739.631 784.699ZM1099.92 784.625C1101.91 785.137 1112.57 804.281 1111.46 805.38C1111.32 805.528 1108.35 804.787 1104.88 803.733C1096.09 801.068 1066.48 800.846 1057.45 803.377C1019.84 813.918 994.034 839.222 984.387 875.026C981.072 887.328 980.858 912.294 983.972 923.581C986.394 932.366 987.319 932.069 975.538 926.274C964.001 920.599 964.63 921.722 963.687 905.14C960.4 847.388 1003.8 793.98 1061.7 784.534C1069.56 783.25 1094.78 783.31 1099.92 784.625ZM373.161 820.273C445.333 833.039 464.859 927.279 403.666 967.501C351.916 1001.52 282.316 966.233 278.886 904.246C276.043 852.841 322.639 811.336 373.161 820.273ZM741.5 822.001C802.429 840.104 821.122 915.481 775.371 958.582C724.059 1006.92 639.409 970.596 639.51 900.282C639.568 859.696 666.471 827.814 707.336 819.9C713.312 818.742 735.029 820.078 741.5 822.001ZM1094.1 820.273C1166.28 833.04 1185.8 927.273 1124.6 967.501C1072.85 1001.52 1003.25 966.233 999.821 904.246C996.978 852.841 1043.57 811.336 1094.1 820.273ZM-0.934872 845.783V855.209L5.0497 855.689C17.8637 856.716 33.1363 867.6 39.2367 880.052C52.5482 907.223 35.8997 939.058 5.72993 944.121L-0.934872 945.239V954.096V962.953H2.73131C18.2599 962.953 37.7568 952.846 48.3782 939.29C79.6823 899.336 55.336 842.858 4.26635 836.957L-0.934872 836.357V845.783ZM350.385 837.333C289.67 846.956 276.546 929.191 331.411 956.231C385.391 982.836 442.472 926.165 416.082 872.168C404.261 847.982 376.4 833.209 350.385 837.333ZM710.734 837.412C662.686 844.952 640.665 900.973 670.687 939.29C698.949 975.361 757.193 968.848 776.909 927.412C798.521 881.991 760.052 829.672 710.734 837.412ZM1071.32 837.333C1010.6 846.956 997.481 929.191 1052.35 956.231C1106.38 982.862 1163.42 926.226 1137.02 872.168C1125.2 847.985 1097.34 833.209 1071.32 837.333ZM1431.67 837.467C1390 843.562 1365.83 889.181 1384.03 927.412C1393.5 947.32 1416.92 962.953 1437.27 962.953H1440.93V954.096V945.239L1434.27 944.121C1404.1 939.058 1387.45 907.223 1400.76 880.052C1406.86 867.6 1422.14 856.716 1434.95 855.689L1440.93 855.209V845.848C1440.93 835.188 1441.81 835.983 1431.67 837.467ZM372.954 857.284C405.19 867.227 414.905 908.565 390.505 931.964C360.713 960.532 312.349 937.855 314.996 896.558C316.81 868.236 345.479 848.809 372.954 857.284ZM739.177 859.735C778.892 879.389 770.32 936.739 726.558 944.144C697.056 949.138 670.026 921.227 676.005 891.945C681.982 862.678 713.08 846.821 739.177 859.735ZM1093.89 857.284C1126.13 867.227 1135.84 908.565 1111.44 931.964C1081.65 960.532 1033.28 937.855 1035.93 896.558C1037.75 868.236 1066.41 848.809 1093.89 857.284ZM475.212 882.18C476.51 887.584 476.358 911.899 474.978 919.593C464.245 979.417 408.429 1022.33 349.246 1016.26C343.461 1015.66 338.578 1015.03 338.394 1014.85C337.687 1014.17 328.44 995.058 328.692 994.806C328.839 994.659 332.581 995.445 337.009 996.553C382.475 1007.92 434.588 980.914 451.451 937.244C458.733 918.387 460.558 894.554 456.077 876.839C454.967 872.453 454.059 868.771 454.059 868.658C454.059 868.544 458.627 870.745 464.21 873.547C473.943 878.432 474.397 878.788 475.212 882.18ZM1196.15 882.18C1197.45 887.584 1197.29 911.899 1195.91 919.593C1185.18 979.417 1129.36 1022.33 1070.18 1016.26C1064.4 1015.66 1059.51 1015.03 1059.33 1014.85C1058.62 1014.17 1049.38 995.058 1049.63 994.806C1049.77 994.659 1053.52 995.445 1057.94 996.553C1103.41 1007.92 1155.52 980.914 1172.39 937.244C1179.67 918.387 1181.49 894.554 1177.01 876.839C1175.9 872.453 1174.99 868.771 1174.99 868.658C1174.99 868.544 1179.56 870.745 1185.15 873.547C1194.88 878.432 1195.33 878.788 1196.15 882.18ZM825.747 873.947C836.896 879.389 836.255 877.749 836.172 900.623C835.963 958.131 797.471 1004.09 740.353 1015.02C731.574 1016.7 710.235 1017.05 702.813 1015.63L698.743 1014.85L693.634 1004.62C689.085 995.515 688.737 994.443 690.468 994.832C691.536 995.072 695.464 995.992 699.195 996.874C766.568 1012.81 832.571 947.944 817.352 880.75C814.705 869.065 814.658 868.747 815.627 869.111C816.134 869.302 820.688 871.478 825.747 873.947ZM-0.934872 881.876V891.364L1.77791 891.906C9.83211 893.515 8.68694 908.753 0.512426 908.753C-0.717777 908.753 -0.934872 910.108 -0.934872 917.787V926.82H1.6178C10.4355 926.82 21.7361 918.017 24.6552 908.875C29.9125 892.407 19.7651 875.695 2.87152 872.997L-0.934872 872.389V881.876ZM352.296 873.83C322.085 883.824 327.944 926.368 359.533 926.368C394.318 926.368 395.713 875.364 360.992 872.981C358.199 872.789 354.286 873.171 352.296 873.83ZM711.399 874.188C692.085 881.093 686.641 904.359 700.968 918.757C721.493 939.381 755.482 917.545 745.273 890.296C740.295 877.009 724.507 869.502 711.399 874.188ZM1073.23 873.83C1043.02 883.824 1048.88 926.368 1080.47 926.368C1115.25 926.368 1116.65 875.364 1081.93 872.981C1079.13 872.789 1075.22 873.171 1073.23 873.83ZM1432.33 874.243C1417.91 879.224 1410.62 894.08 1415.34 908.875C1418.26 918.017 1429.56 926.82 1438.38 926.82H1440.93V917.787C1440.93 910.108 1440.72 908.753 1439.49 908.753C1431.31 908.753 1430.17 893.515 1438.22 891.906L1440.93 891.364V881.992C1440.93 871.232 1440.97 871.262 1432.33 874.243ZM504.897 887.53L511.864 889.042L512.472 893.089C513.321 898.735 512.123 915.48 510.041 927.1C496.748 1001.29 428.515 1056.15 353.995 1052.57L348.457 1052.3L346.919 1044.57C346.073 1040.31 345.202 1036.37 344.984 1035.8C344.697 1035.05 348.762 1034.76 359.749 1034.73C434.929 1034.57 493.905 976.037 494.24 901.262C494.31 885.671 494.366 885.202 496.121 885.604C497.116 885.832 501.066 886.698 504.897 887.53ZM860.981 886.532C863.789 887.229 867.671 888.071 869.608 888.404L873.129 889.01L872.618 904.528C870.125 980.342 815.391 1040.79 739.5 1051.54C733.139 1052.44 710.187 1052.82 709.405 1052.04C708.965 1051.6 705.591 1037.27 705.551 1035.67C705.536 1035.11 711.046 1034.75 720.226 1034.72C795.788 1034.47 854.774 975.419 854.847 899.946C854.855 891.873 855.09 885.267 855.368 885.267C855.647 885.267 858.173 885.837 860.981 886.532ZM1225.83 887.53L1232.8 889.042L1233.41 893.089C1234.26 898.735 1233.06 915.48 1230.98 927.1C1217.69 1001.26 1149.43 1056.15 1074.93 1052.57L1069.39 1052.3L1067.85 1044.57C1067.01 1040.31 1066.14 1036.37 1065.92 1035.8C1065.63 1035.05 1069.7 1034.76 1080.68 1034.73C1157.3 1034.56 1217.67 972.595 1215.56 896.29C1215.26 885.568 1215.31 885.196 1217.06 885.6C1218.05 885.83 1222 886.698 1225.83 887.53ZM188.118 899.779V908.753H179.073H170.027V899.779V890.804H179.073H188.118V899.779ZM549.038 899.754V908.753H539.992H530.947V899.764V890.776L539.992 890.765L549.038 890.754V899.754ZM909.053 899.764V908.753H900.008H890.962V899.754V890.754L900.008 890.765L909.053 890.776V899.764ZM1269.97 899.754V908.753H1260.93H1251.88V899.764V890.776L1260.93 890.765L1269.97 890.754V899.754ZM365.695 894.124C371.13 899.789 367.43 908.302 359.533 908.302C356.023 908.302 354.935 907.872 353.122 905.767C348.169 900.017 351.979 891.59 359.533 891.59C362.441 891.59 363.801 892.149 365.695 894.124ZM724.573 892.52C731.824 896.396 728.343 908.753 720 908.753C716.562 908.753 710.954 903.742 710.954 900.668C710.954 893.868 718.57 889.312 724.573 892.52ZM1086.63 894.124C1092.06 899.789 1088.37 908.302 1080.47 908.302C1076.96 908.302 1075.87 907.872 1074.06 905.767C1069.1 900.017 1072.91 891.59 1080.47 891.59C1083.38 891.59 1084.74 892.149 1086.63 894.124ZM164.154 1018.61C137.94 1024.94 118.397 1048.39 116.135 1076.24L115.505 1084H125.127H134.749V1078.22C134.749 1061.59 146.475 1044.85 162.688 1038.33C191.377 1026.79 224.191 1048.83 224.287 1079.71L224.301 1084H233.346H242.392L242.377 1078.35C242.267 1039.28 202.946 1009.25 164.154 1018.61ZM525.519 1018.44C497.987 1024.71 476.765 1050.75 476.689 1078.35L476.673 1084H485.719H494.764L494.778 1079.71C494.874 1048.83 527.688 1026.79 556.378 1038.33C572.59 1044.85 584.316 1061.59 584.316 1078.22V1084H593.939H603.56L602.93 1076.24C599.744 1037.03 563.318 1009.83 525.519 1018.44ZM885.089 1018.61C858.875 1024.94 839.332 1048.39 837.07 1076.24L836.44 1084H846.061H855.684V1078.22C855.684 1061.59 867.41 1044.85 883.622 1038.33C912.312 1026.79 945.126 1048.83 945.222 1079.71L945.236 1084H954.281H963.327L963.311 1078.35C963.202 1039.28 923.881 1009.25 885.089 1018.61ZM1246.45 1018.44C1218.92 1024.71 1197.7 1050.75 1197.62 1078.35L1197.61 1084H1206.65H1215.7L1215.71 1079.71C1215.81 1048.83 1248.62 1026.79 1277.31 1038.33C1293.53 1044.85 1305.25 1061.59 1305.25 1078.22V1084H1314.87H1324.5L1323.86 1076.24C1320.68 1037.03 1284.25 1009.83 1246.45 1018.44ZM167.766 1055.45C158.965 1059.61 153.105 1068.35 152.166 1078.7L151.684 1084H161.308H170.932V1080.21C170.932 1072.39 179.248 1068.48 185.128 1073.53C187.223 1075.33 187.666 1076.44 187.666 1079.86V1084H197.059H206.453L206.014 1077.9C204.664 1059.11 184.733 1047.41 167.766 1055.45ZM527.51 1056.05C518.503 1060.54 513.786 1067.67 513.051 1077.9L512.612 1084H522.006H531.399V1079.86C531.399 1076.44 531.842 1075.33 533.937 1073.53C539.817 1068.48 548.133 1072.39 548.133 1080.21V1084H557.757H567.381L566.899 1078.7C565.075 1058.61 545.24 1047.2 527.51 1056.05ZM888.701 1055.45C879.9 1059.61 874.04 1068.35 873.101 1078.7L872.619 1084H882.243H891.867V1080.21C891.867 1072.39 900.183 1068.48 906.063 1073.53C908.158 1075.33 908.601 1076.44 908.601 1079.86V1084H917.994H927.388L926.949 1077.9C925.599 1059.11 905.668 1047.41 888.701 1055.45ZM1248.44 1056.05C1239.44 1060.54 1234.72 1067.67 1233.99 1077.9L1233.55 1084H1242.94H1252.33V1079.86C1252.33 1076.44 1252.78 1075.33 1254.87 1073.53C1260.75 1068.48 1269.07 1072.39 1269.07 1080.21V1084H1278.69H1288.32L1287.83 1078.7C1286.01 1058.61 1266.17 1047.2 1248.44 1056.05Z" fill="#000C24"/>
</svg>
